<?xml version="1.0" encoding="utf-8"?><svg xmlns="http://www.w3.org/2000/svg" xmlns:xlink="http://www.w3.org/1999/xlink"><symbol viewBox="0 0 20 21" id="Bag" xmlns="http://www.w3.org/2000/svg"><path d="M13.773 8.305V5.273A3.772 3.772 0 0010 1.5a3.773 3.773 0 00-3.79 3.756v3.049"/><path clip-rule="evenodd" d="M14.742 20H5.258A4.256 4.256 0 011 15.745V10.23a4.256 4.256 0 014.258-4.255h9.484A4.256 4.256 0 0119 10.23v5.516A4.256 4.256 0 0114.742 20z"/></symbol><symbol viewBox="0 0 16 16" id="Call" xmlns="http://www.w3.org/2000/svg"><path clip-rule="evenodd" d="M1.243 2.654C1.48 2.262 2.787.833 3.72.876c.279.023.525.192.725.387.46.45 1.777 2.148 1.851 2.505.182.877-.862 1.382-.543 2.265.815 1.994 2.22 3.399 4.215 4.213.882.32 1.387-.725 2.264-.543.357.075 2.056 1.392 2.505 1.851.195.2.364.447.387.726.035.982-1.482 2.308-1.778 2.477-.698.499-1.608.49-2.718-.025-3.098-1.29-8.047-6.145-9.36-9.36-.502-1.103-.537-2.02-.025-2.718z"/></symbol><symbol viewBox="0 0 14 16" id="Location" xmlns="http://www.w3.org/2000/svg"><path clip-rule="evenodd" d="M1.18 6.793a5.759 5.759 0 0111.517.04v.065c-.04 2.067-1.194 3.978-2.609 5.472-.81.84-1.713 1.584-2.693 2.217a.698.698 0 01-.913 0 14.862 14.862 0 01-3.79-3.548A7.37 7.37 0 011.18 6.813v-.02z"/><circle cx="6.938" cy="6.904" r="1.846"/></symbol><symbol viewBox="0 0 17 16" id="Message" xmlns="http://www.w3.org/2000/svg"><path d="M12.95 5.796L9.753 8.372a1.667 1.667 0 01-2.06 0L4.466 5.796"/><path clip-rule="evenodd" d="M5.166 1.625h7.07c1.02.011 1.99.442 2.686 1.193a3.763 3.763 0 01.994 2.778v4.896a3.763 3.763 0 01-.994 2.777 3.718 3.718 0 01-2.685 1.193H5.166c-2.19 0-3.666-1.781-3.666-3.97V5.596c0-2.19 1.476-3.971 3.666-3.971z"/></symbol><symbol viewBox="0 0 21 21" id="Search" xmlns="http://www.w3.org/2000/svg"><circle cx="9.767" cy="9.767" r="8.989"/><path d="M16.018 16.485L19.542 20"/></symbol></svg>