<?xml version="1.0" encoding="utf-8"?><svg xmlns="http://www.w3.org/2000/svg" xmlns:xlink="http://www.w3.org/1999/xlink"><symbol fill="none" viewBox="0 0 20 21" id="Bag" xmlns="http://www.w3.org/2000/svg"><path d="M13.773 8.305V5.273A3.772 3.772 0 0010 1.5a3.773 3.773 0 00-3.79 3.756v3.049" stroke="#fff" stroke-width="1.5" stroke-linecap="round" stroke-linejoin="round"/><path clip-rule="evenodd" d="M14.742 20H5.258A4.256 4.256 0 011 15.745V10.23a4.256 4.256 0 014.258-4.255h9.484A4.256 4.256 0 0119 10.23v5.516A4.256 4.256 0 0114.742 20z" stroke="#fff" stroke-width="1.5" stroke-linecap="round" stroke-linejoin="round"/></symbol><symbol fill="none" viewBox="0 0 16 16" id="Call" xmlns="http://www.w3.org/2000/svg"><path clip-rule="evenodd" d="M1.243 2.654C1.48 2.262 2.787.833 3.72.876c.279.023.525.192.725.387.46.45 1.777 2.148 1.851 2.505.182.877-.862 1.382-.543 2.265.815 1.994 2.22 3.399 4.215 4.213.882.32 1.387-.725 2.264-.543.357.075 2.056 1.392 2.505 1.851.195.2.364.447.387.726.035.982-1.482 2.308-1.778 2.477-.698.499-1.608.49-2.718-.025-3.098-1.29-8.047-6.145-9.36-9.36-.502-1.103-.537-2.02-.025-2.718z" stroke="#E2B024" stroke-width="1.5" stroke-linecap="round" stroke-linejoin="round"/></symbol><symbol fill="none" viewBox="0 0 14 16" id="Location" xmlns="http://www.w3.org/2000/svg"><path clip-rule="evenodd" d="M1.18 6.793a5.759 5.759 0 0111.517.04v.065c-.04 2.067-1.194 3.978-2.609 5.472-.81.84-1.713 1.584-2.693 2.217a.698.698 0 01-.913 0 14.862 14.862 0 01-3.79-3.548A7.37 7.37 0 011.18 6.813v-.02z" stroke="#E2B024" stroke-width="1.5" stroke-linecap="round" stroke-linejoin="round"/><circle cx="6.938" cy="6.904" stroke="#E2B024" stroke-width="1.5" stroke-linecap="round" stroke-linejoin="round" r="1.846"/></symbol><symbol fill="none" viewBox="0 0 17 16" id="Message" xmlns="http://www.w3.org/2000/svg"><path d="M12.95 5.796L9.753 8.372a1.667 1.667 0 01-2.06 0L4.466 5.796" stroke="#E2B024" stroke-width="1.5" stroke-linecap="round" stroke-linejoin="round"/><path clip-rule="evenodd" d="M5.166 1.625h7.07c1.02.011 1.99.442 2.686 1.193a3.763 3.763 0 01.994 2.778v4.896a3.763 3.763 0 01-.994 2.777 3.718 3.718 0 01-2.685 1.193H5.166c-2.19 0-3.666-1.781-3.666-3.97V5.596c0-2.19 1.476-3.971 3.666-3.971z" stroke="#E2B024" stroke-width="1.5" stroke-linecap="round" stroke-linejoin="round"/></symbol><symbol fill="none" viewBox="0 0 21 21" id="Search" xmlns="http://www.w3.org/2000/svg"><circle cx="9.767" cy="9.767" r="8.989" stroke="#fff" stroke-width="1.5" stroke-linecap="round" stroke-linejoin="round"/><path d="M16.018 16.485L19.542 20" stroke="#fff" stroke-width="1.5" stroke-linecap="round" stroke-linejoin="round"/></symbol><symbol fill="none" viewBox="0 0 48 48" id="facebook" xmlns="http://www.w3.org/2000/svg"><path fill-rule="evenodd" clip-rule="evenodd" d="M34 7c0-.552-.45-1-1-1h-5c-5.524 0-10 4.03-10 9v5.4h-5a1 1 0 00-1 1v5.2a1 1 0 001 1h5V41a1 1 0 001 1h6c.55 0 1-.448 1-1V27.6h5.238c.45 0 .844-.3.966-.732l1.442-5.2a1 1 0 00-.962-1.268H26V15c0-.994.894-1.8 2-1.8h5c.55 0 1-.448 1-1V7z" fill="#231F20"/><mask id="fa" maskUnits="userSpaceOnUse" x="12" y="6" width="22" height="36"><path fill-rule="evenodd" clip-rule="evenodd" d="M34 7c0-.552-.45-1-1-1h-5c-5.524 0-10 4.03-10 9v5.4h-5a1 1 0 00-1 1v5.2a1 1 0 001 1h5V41a1 1 0 001 1h6c.55 0 1-.448 1-1V27.6h5.238c.45 0 .844-.3.966-.732l1.442-5.2a1 1 0 00-.962-1.268H26V15c0-.994.894-1.8 2-1.8h5c.55 0 1-.448 1-1V7z" fill="#fff"/></mask><g mask="url(#fa)"><path fill="#E2B024" d="M0 0h48v48H0z"/></g></symbol><symbol fill="none" viewBox="0 0 48 48" id="google" xmlns="http://www.w3.org/2000/svg"><path fill-rule="evenodd" clip-rule="evenodd" d="M34.99 27.961c-1.332 4.284-4.652 7.25-9.07 7.904-6.742.998-13.362-4.114-13.886-10.914-.544-7.056 5.022-12.95 11.968-12.95 1.606 0 3.138.316 4.538.888.486.198 1.036.028 1.284-.432l2.87-5.294c.272-.506.076-1.158-.448-1.394a19.952 19.952 0 00-8.238-1.768c-11.244 0-20.322 9.272-20 20.586.294 10.322 8.814 18.958 19.128 19.396 11.092.468 20.292-8.092 20.85-18.938.022-.396.014-2.702.006-4.054a.994.994 0 00-1-.99H24.994a1 1 0 00-1 1v5.96c0 .55.448 1 1 1h9.996z" fill="#231F20"/><mask id="ga" maskUnits="userSpaceOnUse" x="3" y="4" width="42" height="41"><path fill-rule="evenodd" clip-rule="evenodd" d="M34.99 27.961c-1.332 4.284-4.652 7.25-9.07 7.904-6.742.998-13.362-4.114-13.886-10.914-.544-7.056 5.022-12.95 11.968-12.95 1.606 0 3.138.316 4.538.888.486.198 1.036.028 1.284-.432l2.87-5.294c.272-.506.076-1.158-.448-1.394a19.952 19.952 0 00-8.238-1.768c-11.244 0-20.322 9.272-20 20.586.294 10.322 8.814 18.958 19.128 19.396 11.092.468 20.292-8.092 20.85-18.938.022-.396.014-2.702.006-4.054a.994.994 0 00-1-.99H24.994a1 1 0 00-1 1v5.96c0 .55.448 1 1 1h9.996z" fill="#fff"/></mask><g mask="url(#ga)"><path fill="#E2B024" d="M0 0h48v48H0z"/></g></symbol><symbol fill="none" viewBox="0 0 48 48" id="linkedin" xmlns="http://www.w3.org/2000/svg"><path fill-rule="evenodd" clip-rule="evenodd" d="M6 10.5C6 8.016 8.016 6 10.5 6S15 8.016 15 10.5 12.984 15 10.5 15A4.502 4.502 0 016 10.5zm24.3 6.3c-6.46 0-11.7 5.21-11.7 11.63V40.2c0 .994.808 1.802 1.802 1.802H24.6c.994 0 1.802-.808 1.802-1.802V28.43c0-2.272 1.968-4.088 4.304-3.854 2.028.202 3.494 2.056 3.494 4.094V40.2c0 .994.808 1.802 1.802 1.802H40.2c.994 0 1.802-.808 1.802-1.802V28.43c0-6.42-5.24-11.628-11.7-11.628zm-17.1 1.8H7.8A1.8 1.8 0 006 20.4v19.8c0 .994.808 1.8 1.802 1.8H13.2a1.8 1.8 0 001.8-1.8V20.4a1.8 1.8 0 00-1.8-1.8z" fill="#231F20"/><mask id="ha" maskUnits="userSpaceOnUse" x="5" y="6" width="38" height="37"><path fill-rule="evenodd" clip-rule="evenodd" d="M6 10.5C6 8.016 8.016 6 10.5 6S15 8.016 15 10.5 12.984 15 10.5 15A4.502 4.502 0 016 10.5zm24.3 6.3c-6.46 0-11.7 5.21-11.7 11.63V40.2c0 .994.808 1.802 1.802 1.802H24.6c.994 0 1.802-.808 1.802-1.802V28.43c0-2.272 1.968-4.088 4.304-3.854 2.028.202 3.494 2.056 3.494 4.094V40.2c0 .994.808 1.802 1.802 1.802H40.2c.994 0 1.802-.808 1.802-1.802V28.43c0-6.42-5.24-11.628-11.7-11.628zm-17.1 1.8H7.8A1.8 1.8 0 006 20.4v19.8c0 .994.808 1.8 1.802 1.8H13.2a1.8 1.8 0 001.8-1.8V20.4a1.8 1.8 0 00-1.8-1.8z" fill="#fff"/></mask><g mask="url(#ha)"><path fill="#E2B024" d="M0 0h48v48H0z"/></g></symbol><symbol fill="none" viewBox="0 0 48 48" id="twitter" xmlns="http://www.w3.org/2000/svg"><path fill-rule="evenodd" clip-rule="evenodd" d="M16.154 40C30.646 40 39.03 28.75 39.03 18.07c0-.293 2.06-2.061 2.942-5.747a.882.882 0 00-1.234-1.024c-1.76.808-3.546.168-4.322-.752a7.749 7.749 0 00-11.148-.35c-2.046 1.974-2.914 4.914-2.28 7.72-6.702.478-11.304-2.698-15.088-7.052-.488-.566-1.394-.268-1.496.48-.56 4.164-.736 14.287 9.296 20.102-1.742 2.504-5.152 3.982-8.948 4.616-.84.142-1.04 1.306-.272 1.682a21.846 21.846 0 009.674 2.25" fill="#231F20"/><mask id="ia" maskUnits="userSpaceOnUse" x="6" y="8" width="36" height="33"><path fill-rule="evenodd" clip-rule="evenodd" d="M16.154 40C30.646 40 39.03 28.75 39.03 18.07c0-.293 2.06-2.061 2.942-5.747a.882.882 0 00-1.234-1.024c-1.76.808-3.546.168-4.322-.752a7.749 7.749 0 00-11.148-.35c-2.046 1.974-2.914 4.914-2.28 7.72-6.702.478-11.304-2.698-15.088-7.052-.488-.566-1.394-.268-1.496.48-.56 4.164-.736 14.287 9.296 20.102-1.742 2.504-5.152 3.982-8.948 4.616-.84.142-1.04 1.306-.272 1.682a21.846 21.846 0 009.674 2.25" fill="#fff"/></mask><g mask="url(#ia)"><path fill="#E2B024" d="M0 0h48v48H0z"/></g></symbol></svg>